<svg width="28" height="15" viewBox="0 0 28 15" fill="none" xmlns="http://www.w3.org/2000/svg">
<path d="M0.492 12L2.172 3.6H3.444L5.892 9.756L5.232 9.744L10.02 3.6H11.364L9.684 12H8.208L9.42 5.88L9.768 5.892L5.712 11.04H5.016L2.892 5.88L3.192 5.916L1.98 12H0.492ZM18.5858 12L20.2658 3.6H24.1418C25.0218 3.6 25.6978 3.76 26.1698 4.08C26.6418 4.4 26.8778 4.868 26.8778 5.484C26.8778 6.012 26.7418 6.456 26.4698 6.816C26.2058 7.176 25.8618 7.448 25.4378 7.632C25.0218 7.816 24.5738 7.908 24.0938 7.908L24.3938 7.5C25.0258 7.5 25.5378 7.66 25.9298 7.98C26.3218 8.292 26.5178 8.752 26.5178 9.36C26.5178 9.944 26.3578 10.432 26.0378 10.824C25.7258 11.216 25.2898 11.512 24.7298 11.712C24.1778 11.904 23.5338 12 22.7978 12H18.5858ZM20.3858 10.776H22.9058C23.5538 10.776 24.0578 10.656 24.4178 10.416C24.7778 10.176 24.9578 9.824 24.9578 9.36C24.9578 8.984 24.8258 8.724 24.5618 8.58C24.2978 8.428 23.9258 8.352 23.4458 8.352H20.6498L20.8898 7.14H23.3258C23.7098 7.14 24.0458 7.092 24.3338 6.996C24.6298 6.892 24.8538 6.736 25.0058 6.528C25.1658 6.312 25.2458 6.052 25.2458 5.748C25.2458 5.428 25.1178 5.196 24.8618 5.052C24.6138 4.9 24.2578 4.824 23.7938 4.824H21.5738L20.3858 10.776Z" fill="currentColor"/>
<circle cx="13" cy="6" r="1" fill="currentColor"/>
<circle cx="17" cy="6" r="1" fill="currentColor"/>
<circle cx="15" cy="9" r="1" fill="currentColor"/>
</svg>
